<?xml version="1.0" encoding="utf-8"?>
<!-- Generator: Adobe Illustrator 21.1.0, SVG Export Plug-In . SVG Version: 6.00 Build 0)  -->
<svg version="1.1" id="圖層_1" xmlns="http://www.w3.org/2000/svg" xmlns:xlink="http://www.w3.org/1999/xlink" x="0px" y="0px"
	 viewBox="0 0 448 448" style="enable-background:new 0 0 448 448;" xml:space="preserve">
<style type="text/css">
	.st0{fill:#FFFFFF;}
</style>
<path class="st0" d="M408,184H272c-4.4,0-8-3.6-8-8V40c0-22.1-17.9-40-40-40s-40,17.9-40,40v136c0,4.4-3.6,8-8,8H40
	c-22.1,0-40,17.9-40,40s17.9,40,40,40h136c4.4,0,8,3.6,8,8v136c0,22.1,17.9,40,40,40s40-17.9,40-40V272c0-4.4,3.6-8,8-8h136
	c22.1,0,40-17.9,40-40S430.1,184,408,184z"/>
</svg>
