<svg id="圖層_1" data-name="圖層 1" xmlns="http://www.w3.org/2000/svg" viewBox="0 0 20 20"><defs><style>.cls-1{fill:#ff9d83;}</style></defs><title>addmusic_d83</title><path id="Icon_awesome-plus" data-name="Icon awesome-plus" class="cls-1" d="M18.57,7.86H12.14V1.43A1.43,1.43,0,0,0,10.71,0H9.29A1.43,1.43,0,0,0,7.86,1.43h0V7.86H1.43A1.43,1.43,0,0,0,0,9.29v1.43a1.43,1.43,0,0,0,1.43,1.42H7.86v6.43A1.43,1.43,0,0,0,9.29,20h1.43a1.43,1.43,0,0,0,1.42-1.43h0V12.14h6.43A1.43,1.43,0,0,0,20,10.71V9.29a1.43,1.43,0,0,0-1.43-1.43Z"/></svg>