<svg id="圖層_1" data-name="圖層 1" xmlns="http://www.w3.org/2000/svg" viewBox="0 0 50 50"><defs><style>.cls-1{fill:#7b7b7b;}</style></defs><title>camera_7b</title><path id="Union_1" data-name="Union 1" class="cls-1" d="M5.4,47.22a4.92,4.92,0,0,1-4.9-4.9V12.92A4.92,4.92,0,0,1,5.4,8h7.77l4.48-4.9h14.7L36.83,8H44.6a4.92,4.92,0,0,1,4.9,4.9V42.3a4.92,4.92,0,0,1-4.9,4.9Zm7.35-19.6A12.25,12.25,0,1,0,25,15.37,12.24,12.24,0,0,0,12.75,27.62Zm4.41,0A7.84,7.84,0,1,1,25,35.46h0a7.84,7.84,0,0,1-7.84-7.83Z"/></svg>