<svg id="圖層_1" data-name="圖層 1" xmlns="http://www.w3.org/2000/svg" viewBox="0 0 50 50"><defs><style>.cls-1{fill:#fff;}.cls-2{fill:#7b7b7b;}</style></defs><title>camera_50</title><circle class="cls-1" cx="25" cy="25" r="25"/><path id="Union_1" data-name="Union 1" class="cls-2" d="M14.11,36.31a2.73,2.73,0,0,1-2.72-2.72V17.26a2.73,2.73,0,0,1,2.72-2.72h4.32l2.49-2.73h8.16l2.49,2.73h4.32a2.73,2.73,0,0,1,2.72,2.72V33.59a2.73,2.73,0,0,1-2.72,2.72ZM18.2,25.42a6.8,6.8,0,1,0,6.8-6.8,6.81,6.81,0,0,0-6.8,6.8Zm2.44,0A4.36,4.36,0,0,1,25,21.07h0a4.35,4.35,0,0,1,4.35,4.35h0A4.35,4.35,0,0,1,25,29.78h0a4.37,4.37,0,0,1-4.36-4.36Z"/></svg>