<svg id="圖層_1" data-name="圖層 1" xmlns="http://www.w3.org/2000/svg" viewBox="0 0 25 20"><defs><style>.cls-1{fill:#ff9d83;}</style></defs><title>close_d83</title><path id="Icon_awesome-eye-slash" data-name="Icon awesome-eye-slash" class="cls-1" d="M12.51,15.63a5.63,5.63,0,0,1-5.59-5.2L2.84,7.26A13.53,13.53,0,0,0,1.4,9.42a1.27,1.27,0,0,0,0,1.14A12.49,12.49,0,0,0,12.51,17.5a12.44,12.44,0,0,0,3-.41l-2-1.56A7,7,0,0,1,12.51,15.63ZM24.76,17.9l-4.31-3.34a13.19,13.19,0,0,0,3.18-4,1.38,1.38,0,0,0,0-1.16A12.53,12.53,0,0,0,12.51,2.5,12.05,12.05,0,0,0,6.76,4L1.76.14A.61.61,0,0,0,.9.22v0h0l-.74,1a.62.62,0,0,0,.1.87h0l23,17.74a.61.61,0,0,0,.86-.08v0h0l.77-1a.63.63,0,0,0-.09-.87h0Zm-7.17-5.55L16.06,11.1a3.76,3.76,0,0,0-4.54-4.7,1.82,1.82,0,0,1,.37,1.1,1.76,1.76,0,0,1-.06.39L9,5.67A5.6,5.6,0,0,1,18.14,10h0A5.62,5.62,0,0,1,17.59,12.35Z"/></svg>