<svg id="圖層_1" data-name="圖層 1" xmlns="http://www.w3.org/2000/svg" viewBox="0 0 60 60"><defs><style>.cls-1{fill:#fff;}.cls-2{fill:#383838;}</style></defs><title>mainPause</title><circle id="play-2" class="cls-1" cx="30" cy="30" r="30"/><g id="stop"><path id="Rectangle_22" data-name="Rectangle 22" class="cls-2" d="M23.74,17.29h0a3,3,0,0,1,3.05,3.05V39.66a3,3,0,0,1-3.05,3.05h0a3,3,0,0,1-3-3.05V20.34A3,3,0,0,1,23.74,17.29Z"/><path id="Rectangle_23" data-name="Rectangle 23" class="cls-2" d="M36.26,17.29h0a3,3,0,0,1,3.05,3.05V39.66a3,3,0,0,1-3.05,3.05h0a3,3,0,0,1-3-3.05V20.34A3,3,0,0,1,36.26,17.29Z"/></g></svg>