<svg id="圖層_1" data-name="圖層 1" xmlns="http://www.w3.org/2000/svg" viewBox="0 0 25 25"><defs><style>.cls-1{fill:#a6ff00;}</style></defs><title>mainPause_rwd</title><g id="stop"><path id="Rectangle_22" data-name="Rectangle 22" class="cls-1" d="M7.46,2.5h0A2.43,2.43,0,0,1,9.92,4.9V20.1a2.43,2.43,0,0,1-2.46,2.4h0A2.43,2.43,0,0,1,5,20.1V4.9A2.43,2.43,0,0,1,7.46,2.5Z"/><path id="Rectangle_23" data-name="Rectangle 23" class="cls-1" d="M17.54,2.5h0A2.43,2.43,0,0,1,20,4.9V20.1a2.43,2.43,0,0,1-2.46,2.4h0a2.43,2.43,0,0,1-2.46-2.4V4.9A2.43,2.43,0,0,1,17.54,2.5Z"/></g></svg>