<svg id="圖層_1" data-name="圖層 1" xmlns="http://www.w3.org/2000/svg" viewBox="0 0 25 25"><defs><style>.cls-1{fill:#b5b5b5;}</style></defs><title>mute_b5</title><path class="cls-1" d="M14.55,9.26l0,0h0Z"/><path class="cls-1" d="M24.68,23.6l-3.22-3.22A11.81,11.81,0,0,0,19.18,2.59l0,0a1,1,0,1,0-1.16,1.67A9.78,9.78,0,0,1,20.9,17.83,9.34,9.34,0,0,1,20,19L18.68,17.6A7.81,7.81,0,0,0,17,6a1,1,0,0,0-1.38.3h0a1,1,0,0,0,.29,1.38l0,0A5.72,5.72,0,0,1,17.7,15.6a6.36,6.36,0,0,1-.43.59l-1.53-1.53a3.64,3.64,0,0,0-1.15-5.37,1,1,0,0,0-1.36.35h0A1,1,0,0,0,13.58,11h.05a1.65,1.65,0,0,1,.68,2.23l-3.15-3.15V5.47a1,1,0,0,0-1-1,1,1,0,0,0-.74.31l-1.8,1.8L1.38.3A.75.75,0,0,0,.32,1.36L6.58,7.62l-.86.87H1.44a1,1,0,0,0-1,1v6a1,1,0,0,0,1,1H5.72l3.72,3.73a1,1,0,0,0,1.41,0,1,1,0,0,0,.31-.75V12.2l2.09,2.09a1,1,0,0,0-.06,1v0a1,1,0,0,0,1.35.43h0l.06,0,1.55,1.55-.24.17a1,1,0,0,0-.33,1.38l0,0A1,1,0,0,0,17,19.1h0c.22-.14.42-.3.62-.45L19,20a9.54,9.54,0,0,1-.9.67,1,1,0,0,0,1.12,1.69,11.09,11.09,0,0,0,1.21-.93l3.23,3.23a.75.75,0,0,0,1.06,0A.75.75,0,0,0,24.68,23.6Z"/></svg>