<svg id="圖層_1" data-name="圖層 1" xmlns="http://www.w3.org/2000/svg" viewBox="0 0 25 20"><defs><style>.cls-1{fill:#ff9d83;}</style></defs><title>open_d83</title><path id="Icon_awesome-eye" data-name="Icon awesome-eye" class="cls-1" d="M24.88,9.37A13.92,13.92,0,0,0,12.5,1.66,13.88,13.88,0,0,0,.17,9.37a1.34,1.34,0,0,0,0,1.26A13.88,13.88,0,0,0,12.5,18.34a13.91,13.91,0,0,0,12.35-7.71A1.4,1.4,0,0,0,24.88,9.37Zm-12.38,7A6.26,6.26,0,1,1,18.81,10h0A6.32,6.32,0,0,1,12.5,16.32Zm0-10.49A3.67,3.67,0,0,0,11.4,6a2.1,2.1,0,0,1-3,2.9A4.17,4.17,0,1,0,13.56,6l-.08,0A4.08,4.08,0,0,0,12.5,5.83Z"/></svg>