<?xml version="1.0" encoding="utf-8"?>
<!-- Generator: Adobe Illustrator 21.1.0, SVG Export Plug-In . SVG Version: 6.00 Build 0)  -->
<svg version="1.1" id="Capa_1" xmlns="http://www.w3.org/2000/svg" xmlns:xlink="http://www.w3.org/1999/xlink" x="0px" y="0px"
	 viewBox="0 0 272 272" style="enable-background:new 0 0 272 272;" xml:space="preserve">
<style type="text/css">
	.st0{fill:#FFFFFF;}
</style>
<g>
	<g>
		<path class="st0" d="M136,272c75.1,0,136-60.9,136-136S211.1,0,136,0S0,60.9,0,136S60.9,272,136,272z M136,21.8
			c63,0,114.2,51.2,114.2,114.2S199,250.2,136,250.2S21.8,199,21.8,136S73,21.8,136,21.8z"/>
		<path class="st0" d="M110.7,200.1c7.5,0,13.6-6.1,13.6-13.6V83.2c0-7.5-6.1-13.6-13.6-13.6c-7.5,0-13.6,6.1-13.6,13.6v103.3
			C97.1,194,103.2,200.1,110.7,200.1z"/>
		<path class="st0" d="M165.1,200.1c7.5,0,13.6-6.1,13.6-13.6V83.2c0-7.5-6.1-13.6-13.6-13.6s-13.6,6.1-13.6,13.6v103.3
			C151.5,194,157.6,200.1,165.1,200.1z"/>
	</g>
</g>
</svg>
