<svg id="Capa_1" data-name="Capa 1" xmlns="http://www.w3.org/2000/svg" viewBox="0 0 30.1 30.1"><defs><style>.cls-1,.cls-2{fill:#fff;}.cls-1{opacity:0.2;}</style></defs><title>pause_fff</title><circle class="cls-1" cx="15.05" cy="15.05" r="15"/><path class="cls-2" d="M15.05.05a15,15,0,1,0,15,15A15,15,0,0,0,15.05.05Zm0,28.38A13.38,13.38,0,1,1,28.43,15.05,13.39,13.39,0,0,1,15.05,28.43Z"/><path class="cls-2" d="M11.56,21.92a1.42,1.42,0,0,1-1.43-1.42V9.5A1.43,1.43,0,0,1,13,9.5v11A1.42,1.42,0,0,1,11.56,21.92Z"/><path class="cls-2" d="M18.44,21.92A1.42,1.42,0,0,1,17,20.5V9.5a1.43,1.43,0,0,1,2.85,0v11A1.42,1.42,0,0,1,18.44,21.92Z"/></svg>