<svg id="Capa_1" data-name="Capa 1" xmlns="http://www.w3.org/2000/svg" viewBox="0 0 30.1 30.1"><defs><style>.cls-1,.cls-2{fill:#fff;}.cls-1{opacity:0.2;}</style></defs><title>play_fff</title><circle class="cls-1" cx="15.05" cy="15.05" r="15"/><path class="cls-2" d="M15.05.05a15,15,0,1,0,15,15A15,15,0,0,0,15.05.05Zm0,28.38A13.38,13.38,0,1,1,28.43,15.05,13.39,13.39,0,0,1,15.05,28.43Z"/><path id="play-3" class="cls-2" d="M21.36,14.8A.85.85,0,0,1,21.58,16a.77.77,0,0,1-.22.22l-8.81,6.1a.85.85,0,0,1-1.19-.22.84.84,0,0,1-.15-.49V9.41a.85.85,0,0,1,.85-.86.84.84,0,0,1,.49.15Z"/></svg>