<svg id="圖層_1" data-name="圖層 1" xmlns="http://www.w3.org/2000/svg" viewBox="0 0 24.74 23.34"><defs><style>.cls-1{fill:#383838;}</style></defs><title>pre_38</title><path id="Icon_ionic-md-arrow-round-back" data-name="Icon ionic-md-arrow-round-back" class="cls-1" d="M22.6,9.42H7.6l5.84-5.58a2.34,2.34,0,0,0,0-3.18A2.08,2.08,0,0,0,10.5.56h0l-.1.1L.63,10.08A2.17,2.17,0,0,0,0,11.66H0a2.17,2.17,0,0,0,.63,1.58l9.71,9.42a2.08,2.08,0,0,0,2.94.1h0l.1-.1a2.32,2.32,0,0,0,0-3.18L7.55,13.92h15a2.19,2.19,0,0,0,2.15-2.23v0h0A2.18,2.18,0,0,0,22.6,9.42Z"/></svg>