<svg id="圖層_1" data-name="圖層 1" xmlns="http://www.w3.org/2000/svg" viewBox="0 0 25 25"><defs><style>.cls-1{fill:#a6ff00;}</style></defs><title>pre_arrow</title><path id="Icon_ionic-md-arrow-round-back" data-name="Icon ionic-md-arrow-round-back" class="cls-1" d="M22.73,10.25h-15l5.84-5.58a2.34,2.34,0,0,0,0-3.18,2.08,2.08,0,0,0-2.94-.1.47.47,0,0,0-.1.1L.76,10.91a2.13,2.13,0,0,0-.63,1.58v0a2.13,2.13,0,0,0,.63,1.58l9.71,9.42a2.08,2.08,0,0,0,2.94.1l.1-.1a2.34,2.34,0,0,0,0-3.18L7.67,14.75H22.72a2.2,2.2,0,0,0,2.15-2.25h0a2.18,2.18,0,0,0-2.1-2.25Z"/></svg>