<svg id="圖層_1" data-name="圖層 1" xmlns="http://www.w3.org/2000/svg" viewBox="0 0 25 25"><defs><style>.cls-1{fill:#a6ff00;}</style></defs><title>share_F00</title><path id="Icon_ionic-ios-share-alt" data-name="Icon ionic-ios-share-alt" class="cls-1" d="M21.55,10.74,15.2,4.63a.31.31,0,0,0-.2-.11c-.19,0-.44.15-.44.37V8a.22.22,0,0,1-.17.19C8,9.14,5.37,14,4.43,19c0,.2.22.39.35.23a11.37,11.37,0,0,1,9.53-5,.22.22,0,0,1,.19.22v3a.41.41,0,0,0,.42.36.44.44,0,0,0,.24-.11l6.39-6.22a.55.55,0,0,0,.16-.39A.6.6,0,0,0,21.55,10.74Z"/></svg>