<svg id="圖層_1" data-name="圖層 1" xmlns="http://www.w3.org/2000/svg" viewBox="0 0 25 25"><defs><style>.cls-1{fill:#b5b5b5;}</style></defs><title>volume_b5</title><path id="Icon_awesome-volume-up" data-name="Icon awesome-volume-up" class="cls-1" d="M9.44,4.76,5.72,8.49H1.44a1,1,0,0,0-1,1h0v6a1,1,0,0,0,1,1H5.72l3.72,3.73a1,1,0,0,0,1.72-.72V5.47a1,1,0,0,0-1.72-.71Zm9.78-2.14a1,1,0,1,0-1.16,1.67l0,0a9.78,9.78,0,0,1,0,16.38,1,1,0,1,0,1.12,1.69,11.83,11.83,0,0,0,0-19.77Zm1.32,9.89A7.74,7.74,0,0,0,17,6a1,1,0,0,0-1.39.31h0a1,1,0,0,0,.31,1.4,5.72,5.72,0,0,1,0,9.67,1,1,0,0,0-.31,1.4,1,1,0,0,0,1.38.32h0A7.74,7.74,0,0,0,20.54,12.51ZM14.6,9.29a1,1,0,0,0-1.38.36A1,1,0,0,0,13.58,11l.05,0a1.65,1.65,0,0,1,.68,2.23,1.59,1.59,0,0,1-.68.68,1,1,0,0,0-.43,1.36,1,1,0,0,0,1.35.43l0,0a3.66,3.66,0,0,0,0-6.44Z"/></svg>