<?xml version="1.0" encoding="utf-8"?>
<!-- Generator: Adobe Illustrator 21.1.0, SVG Export Plug-In . SVG Version: 6.00 Build 0)  -->
<svg version="1.1" id="Capa_1" xmlns="http://www.w3.org/2000/svg" xmlns:xlink="http://www.w3.org/1999/xlink" x="0px" y="0px"
	 viewBox="0 0 477.9 477.9" style="enable-background:new 0 0 477.9 477.9;" xml:space="preserve">
<style type="text/css">
	.st0{fill:#222222;}
</style>
<g>
	<path class="st0" d="M80.5,344.9c18.5-0.1,36.6,4.8,52.5,14.1V51.7c0-8.8,6.8-16.2,15.6-17.2L463.5,0H-6.9v414
		C-6.9,375.9,32.4,344.9,80.5,344.9z"/>
	<path class="st0" d="M-6.9,414v69h87.4C32.4,483-6.9,452.1-6.9,414z"/>
	<path class="st0" d="M467.1,0c3.8,0.4,7.3,1.9,10.1,4.3c3.7,3.3,5.8,8,5.7,12.9v362.2c0,38.1-39.3,69-87.4,69s-87.4-30.9-87.4-69
		s39.2-69,87.4-69c18.5-0.1,36.6,4.9,52.5,14.1V122.8l-280,30.7V414c0,38.1-39.3,69-87.4,69H483V0H467.1z"/>
</g>
</svg>
