<?xml version="1.0" encoding="utf-8"?>
<!-- Generator: Adobe Illustrator 21.1.0, SVG Export Plug-In . SVG Version: 6.00 Build 0)  -->
<svg version="1.1" id="Capa_1" xmlns="http://www.w3.org/2000/svg" xmlns:xlink="http://www.w3.org/1999/xlink" x="0px" y="0px"
	 viewBox="0 0 191.7 191.7" style="enable-background:new 0 0 191.7 191.7;" xml:space="preserve">
<style type="text/css">
	.st0{fill:#222222;stroke:#000000;stroke-miterlimit:10;}
</style>
<g>
	<path class="st0" d="M194,95.8V-2.4H95.8C150-2.4,194,41.7,194,95.8z"/>
	<path class="st0" d="M95.8-2.4H-2.4v98.2C-2.4,41.7,41.7-2.4,95.8-2.4z"/>
	<path class="st0" d="M95.8,194H194V95.8C194,149.9,149.9,194,95.8,194z"/>
	<path class="st0" d="M132.6,59.5l-51.9,51.9L59.1,89.8c-2.7-2.7-6.1-4.1-9.8-4.1c-3.7,0-7.2,1.4-9.8,4.1c-2.7,2.7-4.1,6.1-4.1,9.8
		c0,3.7,1.4,7.2,4.1,9.8l31.5,31.5c2.7,2.7,6.1,4.1,9.8,4.1c3.7,0,7.2-1.4,9.8-4.1l61.7-61.7c5.3-5.3,5.3-14.1,0-19.7
		c-2.7-2.7-6.1-4.1-9.8-4.1C138.7,55.4,135.3,56.9,132.6,59.5z"/>
	<path class="st0" d="M-2.4,95.8V194h98.2C41.7,194-2.4,149.9-2.4,95.8z"/>
</g>
</svg>
