<?xml version="1.0" encoding="utf-8"?>
<!-- Generator: Adobe Illustrator 21.1.0, SVG Export Plug-In . SVG Version: 6.00 Build 0)  -->
<svg version="1.1" id="Capa_1" xmlns="http://www.w3.org/2000/svg" xmlns:xlink="http://www.w3.org/1999/xlink" x="0px" y="0px"
	 viewBox="0 0 512 512" style="enable-background:new 0 0 512 512;" xml:space="preserve">
<style type="text/css">
	.st0{fill:#222222;stroke:#000000;stroke-miterlimit:10;}
</style>
<g>
	<path class="st0" d="M201.4-6.1H-6.1v207.5C-6.1,87,87.1-6.1,201.4-6.1z"/>
	<path class="st0" d="M408.8,201.4c0,49.3-17.4,94.7-46.3,130.3l149,149c4.2,4.2,6.4,9.7,6.4,15.2v-502H201.4
		C315.8-6.1,408.8,87,408.8,201.4z"/>
	<path class="st0" d="M201.4,37.6c-90.3,0-163.8,73.5-163.8,163.8s73.5,163.8,163.8,163.8s163.8-73.5,163.8-163.8
		S291.7,37.6,201.4,37.6z"/>
	<path class="st0" d="M480.8,511.7l-149-149c-35.6,28.9-81,46.3-130.3,46.3C87,408.9-6.1,315.9-6.1,201.4v316.6h500.2
		C489.3,517.6,484.6,515.5,480.8,511.7z"/>
	<path class="st0" d="M511.7,511.7c-3.8,3.8-8.5,5.9-13.3,6.3h19.7v-21.6C518,502,515.9,507.5,511.7,511.7z"/>
</g>
</svg>
