<?xml version="1.0" encoding="utf-8"?>
<!-- Generator: Adobe Illustrator 21.1.0, SVG Export Plug-In . SVG Version: 6.00 Build 0)  -->
<svg version="1.1" id="圖層_1" xmlns="http://www.w3.org/2000/svg" xmlns:xlink="http://www.w3.org/1999/xlink" x="0px" y="0px"
	 viewBox="0 0 432 432" style="enable-background:new 0 0 432 432;" xml:space="preserve">
<style type="text/css">
	.st0{fill:#222222;}
</style>
<path class="st0" d="M216-5c104,0,188.3,22,188.3,49.1S320,93.2,216,93.2S27.7,71.2,27.7,44.1S112-5,216-5H-5v442h221
	c-116.6,0-188.3-28.6-188.3-49.1v-87.6c0.2,0.1,0.4,0.3,0.6,0.4c1.8,1.3,3.8,2.7,5.9,4c0.3,0.2,0.7,0.4,1,0.6c1.9,1.1,3.9,2.1,6,3.3
	l1.7,0.9c2.5,1.2,4.9,2.4,7.6,3.5l1.5,0.6c2.3,0.9,4.7,1.8,7.2,2.8l2,0.7c2.9,1,5.8,2,8.9,3l2,0.6c2.7,0.8,5.4,1.6,8.2,2.4
	c0.7,0.2,1.4,0.4,2.1,0.6c3.3,0.8,6.7,1.6,10.1,2.5c0.8,0.2,1.6,0.3,2.5,0.5c3.1,0.7,6.1,1.3,9.2,1.9l2.1,0.4
	c3.6,0.6,7.3,1.3,11,1.9c0.9,0.1,1.8,0.3,2.8,0.4c3.3,0.5,6.7,1,10,1.5l2,0.3c3.9,0.5,7.8,1,11.8,1.4l3,0.3
	c3.6,0.4,7.3,0.8,10.9,1.1l1.5,0.1c4.1,0.3,8.2,0.6,12.3,0.9l3.1,0.2c3.9,0.2,7.8,0.4,11.7,0.6h1c4.1,0.2,8.3,0.3,12.5,0.4l3.1,0.1
	c4.3,0,8.5,0.1,12.7,0.1c4.3,0,8.5,0,12.7-0.1l3.1-0.1c4.2-0.1,8.4-0.2,12.6-0.4h0.9c3.9-0.2,7.8-0.4,11.7-0.6l3.1-0.2
	c4.1-0.3,8.2-0.5,12.3-0.9l1.5-0.1c3.7-0.4,7.4-0.7,10.9-1.1l3-0.3c4-0.4,7.9-0.9,11.8-1.4l2-0.3c3.4-0.5,6.8-1,10-1.5
	c0.9-0.1,1.8-0.2,2.8-0.4c3.8-0.6,7.5-1.2,11-1.9l2.1-0.4c3.2-0.6,6.2-1.2,9.2-1.9c0.8-0.1,1.6-0.3,2.5-0.5
	c3.5-0.8,6.9-1.6,10.1-2.5c0.7-0.2,1.4-0.4,2.1-0.6c2.8-0.8,5.5-1.5,8.2-2.4l2-0.6c3.1-0.9,6-1.9,8.9-3l2-0.7
	c2.5-0.8,4.8-1.8,7.2-2.8l1.5-0.6c2.7-1.1,5.1-2.3,7.6-3.5l1.7-0.9c2.1-1,4.1-2.1,6-3.3c0.3-0.2,0.7-0.4,1-0.6
	c2.1-1.3,4.1-2.7,5.9-4c0.2-0.1,0.4-0.3,0.6-0.4l0,87.6c0,20.5-71.6,49.1-188.3,49.1h221V-5H216z M216,322.4
	c-116.6,0-188.3-28.6-188.3-49.1v-87.6c0.2,0.1,0.4,0.3,0.6,0.4c1.8,1.3,3.8,2.7,5.9,4c0.3,0.2,0.7,0.4,1,0.6c1.9,1.1,3.9,2.1,6,3.3
	l1.7,0.9c2.5,1.2,4.9,2.4,7.6,3.5l1.5,0.6c2.3,0.9,4.7,1.8,7.2,2.8l2,0.7c2.9,1,5.8,2,8.9,3l2,0.6c2.7,0.8,5.4,1.6,8.2,2.4
	c0.7,0.2,1.4,0.4,2.1,0.6c3.3,0.8,6.7,1.6,10.1,2.5c0.8,0.2,1.6,0.3,2.5,0.5c3.1,0.7,6.1,1.3,9.2,1.9l2.1,0.4
	c3.6,0.6,7.3,1.3,11,1.9c0.9,0.1,1.8,0.3,2.8,0.4c3.3,0.5,6.7,1,10,1.5l2,0.3c3.9,0.5,7.8,1,11.8,1.4l3,0.3
	c3.6,0.4,7.3,0.8,10.9,1.1l1.5,0.1c4.1,0.3,8.2,0.6,12.3,0.9l3.1,0.2c3.9,0.2,7.8,0.4,11.7,0.6h1c4.1,0.2,8.3,0.3,12.5,0.4l3.1,0.1
	c4.3,0,8.5,0.1,12.7,0.1c4.3,0,8.5,0,12.7-0.1l3.1-0.1c4.2-0.1,8.4-0.2,12.6-0.4h0.9c3.9-0.2,7.8-0.4,11.7-0.6l3.1-0.2
	c4.1-0.3,8.2-0.5,12.3-0.9l1.5-0.1c3.7-0.4,7.4-0.7,10.9-1.1l3-0.3c4-0.4,7.9-0.9,11.8-1.4l2-0.3c3.4-0.5,6.8-1,10-1.5
	c0.9-0.1,1.8-0.2,2.8-0.4c3.8-0.6,7.5-1.2,11-1.9l2.1-0.4c3.2-0.6,6.2-1.2,9.2-1.9c0.8-0.1,1.6-0.3,2.5-0.5
	c3.5-0.8,6.9-1.6,10.1-2.5c0.7-0.2,1.4-0.4,2.1-0.6c2.8-0.8,5.5-1.5,8.2-2.4l2-0.6c3.1-0.9,6-1.9,8.9-3l2-0.7
	c2.5-0.8,4.8-1.8,7.2-2.8l1.5-0.6c2.7-1.1,5.1-2.3,7.6-3.5l1.7-0.9c2.1-1,4.1-2.1,6-3.3c0.3-0.2,0.7-0.4,1-0.6
	c2.1-1.3,4.1-2.7,5.9-4c0.2-0.1,0.4-0.3,0.6-0.4l0,87.6C404.3,293.8,332.6,322.4,216,322.4z M216,207.8
	c-116.6,0-188.3-28.6-188.3-49.1V71.2c0.2,0.1,0.4,0.3,0.6,0.4c1.8,1.3,3.8,2.7,5.9,4c0.3,0.2,0.7,0.4,1,0.6c1.9,1.1,3.9,2.1,6,3.3
	l1.7,0.9c2.5,1.2,4.9,2.4,7.6,3.5l1.5,0.6c2.3,0.9,4.7,1.8,7.2,2.8l2,0.7c2.9,1,5.8,2,8.9,3l2,0.6c2.7,0.8,5.4,1.6,8.2,2.4
	c0.7,0.2,1.4,0.4,2.1,0.6c3.3,0.8,6.7,1.6,10.1,2.5c0.8,0.2,1.6,0.3,2.5,0.5c3.1,0.7,6.1,1.3,9.2,1.9l2.1,0.4
	c3.6,0.6,7.3,1.3,11,1.9c0.9,0.1,1.8,0.3,2.8,0.4c3.3,0.5,6.7,1,10,1.5l2,0.3c3.9,0.5,7.8,1,11.8,1.4l3,0.3
	c3.6,0.4,7.3,0.8,10.9,1.1l1.5,0.1c4.1,0.3,8.2,0.6,12.3,0.9l3.1,0.2c3.9,0.2,7.8,0.4,11.7,0.6h1c4.1,0.2,8.3,0.3,12.5,0.4l3.1,0.1
	c4.3,0,8.5,0.1,12.7,0.1c4.3,0,8.5,0,12.7-0.1l3.1-0.1c4.2-0.1,8.4-0.2,12.6-0.4h0.9c3.9-0.2,7.8-0.4,11.7-0.6l3.1-0.3
	c4.1-0.3,8.2-0.5,12.3-0.9l1.5-0.1c3.7-0.4,7.4-0.7,10.9-1.1l3-0.3c4-0.4,7.9-0.9,11.8-1.4l2-0.3c3.4-0.5,6.8-1,10-1.5
	c0.9-0.1,1.8-0.2,2.8-0.4c3.8-0.6,7.5-1.2,11-1.9l2.1-0.4c3.2-0.6,6.2-1.2,9.2-1.9c0.8-0.1,1.6-0.3,2.5-0.5
	c3.5-0.8,6.9-1.6,10.1-2.5c0.7-0.2,1.4-0.4,2.1-0.6c2.8-0.8,5.5-1.5,8.2-2.4l2-0.6c3.1-0.9,6-1.9,8.9-3l2-0.7
	c2.5-0.8,4.8-1.8,7.2-2.8l1.5-0.6c2.7-1.1,5.1-2.3,7.6-3.5l1.7-0.9c2.1-1,4.1-2.1,6-3.3c0.3-0.2,0.7-0.4,1-0.6
	c2.1-1.3,4.1-2.7,5.9-4c0.2-0.1,0.4-0.3,0.6-0.4l0,87.6C404.3,179.2,332.6,207.8,216,207.8z"/>
</svg>
