<?xml version="1.0" encoding="utf-8"?>
<!-- Generator: Adobe Illustrator 21.1.0, SVG Export Plug-In . SVG Version: 6.00 Build 0)  -->
<svg version="1.1" id="Capa_1" xmlns="http://www.w3.org/2000/svg" xmlns:xlink="http://www.w3.org/1999/xlink" x="0px" y="0px"
	 viewBox="0 0 47 47" style="enable-background:new 0 0 47 47;" xml:space="preserve">
<style type="text/css">
	.st0{fill:#222222;}
</style>
<path class="st0" d="M34.1,14.7l9.3-5.3c0.7-0.4,1.7-0.4,2.4,0c0.7,0.4,1.2,1.2,1.2,2V0H0v47h47V35.6c0,1.3-1.1,2.4-2.4,2.4h-9.3
	c-1.3,0-2.4-1.1-2.4-2.4V16.8C32.9,15.9,33.3,15.1,34.1,14.7z M14.1,35.6c0,1.3-1.1,2.4-2.4,2.4H2.4c-1.1,0-2-0.8-2.3-1.8
	c-0.3-1,0.2-2.2,1.1-2.7l9.3-5.3c0.7-0.4,1.7-0.4,2.4,0c0.7,0.4,1.2,1.2,1.2,2.1V35.6z M30.5,35.5c0,1.3-1.1,2.4-2.4,2.4h-9.2
	c-1.3,0-2.4-1.1-2.4-2.4v-9.4c0-0.9,0.4-1.7,1.2-2.1l9.2-5.2c0.7-0.4,1.7-0.4,2.4,0c0.7,0.4,1.2,1.2,1.2,2.1V35.5z"/>
</svg>
