<svg id="圖層_2" data-name="圖層 2" xmlns="http://www.w3.org/2000/svg" xmlns:xlink="http://www.w3.org/1999/xlink" viewBox="0 0 150 30"><defs><style>.cls-1{fill:#a6ff00;}.cls-2{fill:#31bdc5;}.cls-3{fill:url(#未命名漸層_65);}</style><linearGradient id="未命名漸層_65" y1="15.01" x2="27.22" y2="15.01" gradientUnits="userSpaceOnUse"><stop offset="0" stop-color="#a6ff00"/><stop offset="0.27" stop-color="#7de845"/><stop offset="0.52" stop-color="#5cd57c"/><stop offset="0.73" stop-color="#45c8a4"/><stop offset="0.9" stop-color="#36c0bc"/><stop offset="1" stop-color="#31bdc5"/></linearGradient></defs><title>logo_編輯</title><path class="cls-1" d="M46.73,6.88A13.5,13.5,0,0,0,40.2,5H34.09a.68.68,0,0,0-.76.78V22.68c0,.49.28.74.84.74h5.95A16.89,16.89,0,0,0,43,23.08a9,9,0,0,0,6.14-3.7,10.25,10.25,0,0,0,.71-8.76A7.49,7.49,0,0,0,46.73,6.88ZM44.88,18.94a6.84,6.84,0,0,1-4.35,1.49H37.6c-.44,0-.66-.2-.66-.61V8.59c0-.39.23-.58.68-.58a24.21,24.21,0,0,1,3.94.22,5.53,5.53,0,0,1,5,4.33A6.6,6.6,0,0,1,44.88,18.94Z"/><path class="cls-1" d="M59.88,10.26a3.08,3.08,0,0,0-2.66.58c-.51.48-.76.53-.76.15s-.28-.49-.84-.49H53.9c-.54,0-.78.29-.73.86a18.47,18.47,0,0,1,.22,2v9.37c0,.49.28.74.84.74h1.63c.55,0,.82-.25.82-.76V15.25q.62-2.82,3.23-2.08c.55.11.82-.08.82-.56V11.19C60.73,10.7,60.45,10.39,59.88,10.26Z"/><path class="cls-1" d="M71.06,10.33A8.24,8.24,0,0,0,64.7,11.6a6.69,6.69,0,0,0-2.29,3.75A8.1,8.1,0,0,0,62.87,20a7.14,7.14,0,0,0,2.59,2.77,8.51,8.51,0,0,0,5.16.85,6.52,6.52,0,0,0,4.21-2.2,7,7,0,0,0,1.34-6.6A6.5,6.5,0,0,0,71.06,10.33Zm1.14,9.13a3.38,3.38,0,0,1-2.09,1.32,3.43,3.43,0,0,1-3.92-1.89,4.61,4.61,0,0,1,.3-4.3,3.14,3.14,0,0,1,2-1.42,3.45,3.45,0,0,1,4,1.86A4.55,4.55,0,0,1,72.2,19.46Z"/><path class="cls-1" d="M87.26,10.33a6.47,6.47,0,0,0-4.49.61c-.51.44-.78.47-.81.07s-.36-.51-.9-.51H79.27c-.55,0-.8.25-.77.74l.3,2.44V26.06c0,.49.28.73.85.73h1.68c.54,0,.82-.25.82-.75V23.39c0-.39.21-.49.65-.31a7.29,7.29,0,0,0,5.71.12,5,5,0,0,0,2.2-1.71A7.67,7.67,0,0,0,91.09,13,6,6,0,0,0,87.26,10.33ZM87.64,20a2.68,2.68,0,0,1-2.34.81,3.06,3.06,0,0,1-2.64-1.62,5.85,5.85,0,0,1-.49-3.13A3.2,3.2,0,0,1,85.08,13q2.81-.16,3.45,2.79A5.39,5.39,0,0,1,87.64,20Z"/><path class="cls-2" d="M107.38,14.15c-.44-.3-.42-.66.05-1.08a4,4,0,0,0,1.09-2,4.44,4.44,0,0,0-1.44-4.45A7.68,7.68,0,0,0,102.73,5H95.39a.68.68,0,0,0-.76.78V22.68c0,.49.28.74.84.74h7.64q6.45-.74,6.28-5.85A4.61,4.61,0,0,0,107.38,14.15ZM98.16,8.59c0-.39.23-.58.68-.58h3c2,0,3,.85,3,2.52a1.8,1.8,0,0,1-.73,1.24,4,4,0,0,1-2.17.69H98.82c-.44,0-.66-.21-.66-.61Zm7.1,10.74a4,4,0,0,1-3,1.1H98.82c-.44,0-.66-.2-.66-.61V16c0-.4.23-.59.68-.59a22.79,22.79,0,0,1,4.84.27c1.29.39,2,1,2,1.88A2.55,2.55,0,0,1,105.26,19.33Z"/><path class="cls-2" d="M119.67,10.46a14.4,14.4,0,0,0-1.65-.11,6,6,0,0,0-1.81.23h0a6.35,6.35,0,0,0-4.52,4.8,8.14,8.14,0,0,0,.41,4.53,5.86,5.86,0,0,0,3.44,3.21,8.79,8.79,0,0,0,5.18.14c2.14-.77,3.48-2,4-3.63a.45.45,0,0,0,0-.39.6.6,0,0,0-.45-.14h-1.87a1.06,1.06,0,0,0-1,.64,3.1,3.1,0,0,1-3,1.29,3.47,3.47,0,0,1-3.42-2.67.74.74,0,0,1,.07-.66.67.67,0,0,1,.55-.22h8.72c.45,0,.66-.18.66-.59a8.58,8.58,0,0,0-.35-2C123.66,12.29,122,10.81,119.67,10.46Zm1.41,4.34a.56.56,0,0,1-.52.22h-4.78a.5.5,0,0,1-.48-.21c-.11-.22,0-.49.15-.68a3.69,3.69,0,0,1,4-1.07h0a3.08,3.08,0,0,1,1.44,1C121.13,14.41,121.17,14.63,121.08,14.8Z"/><path class="cls-2" d="M138.21,20.64V14.22a3.94,3.94,0,0,0-1.47-2.79,7.24,7.24,0,0,0-4.73-1h0a4.74,4.74,0,0,0-4.75,3.75.5.5,0,0,0,.07.38.63.63,0,0,0,.48.15h1.9c.42,0,.66-.22.77-.68a1.4,1.4,0,0,1,.88-1,5.23,5.23,0,0,1,2.85,0,1.73,1.73,0,0,1,.91,1.73c0,.2-.24.25-.84.25-.27,0-.53,0-.78,0-2.7,0-4.73.69-6,2.07A4.34,4.34,0,0,0,126.7,19a4,4,0,0,0,.86,2.91,4.46,4.46,0,0,0,2.05,1.37,5.76,5.76,0,0,0,4.62-.28c.42-.35.69-.47.88-.38s.18.13.18.37c0,.07,0,.3.68.3h1.88a.59.59,0,0,0,.46-.15.64.64,0,0,0,.11-.53A18.34,18.34,0,0,1,138.21,20.64Zm-6.08.43a4.92,4.92,0,0,1-.91-.09,2.12,2.12,0,0,1-1.28-1.07,1.54,1.54,0,0,1,.1-1.23,3.33,3.33,0,0,1,2.35-1.1h0c.64,0,1.29-.06,1.92,0h0a.81.81,0,0,1,.61.21.76.76,0,0,1,.17.55C134.78,20.14,133.78,21.07,132.13,21.07Z"/><path class="cls-2" d="M149.16,10.57h-1.88c-.43,0-.65-.2-.65-.61V7.35q0-.66-.9-.27l-1.68.73a1.22,1.22,0,0,0-.82,1.13V10c0,.39-.22.58-.68.58h-1.63c-.54,0-.81.26-.81.76v1.45c0,.49.28.73.84.73h1.63c.43,0,.65.2.65.61v6.07a2.29,2.29,0,0,1,.08.59,3.22,3.22,0,0,0,3.35,2.61h2.23q.81,0,.81-.75V21.27c0-.49-.28-.74-.84-.74H148c-1.07.08-1.51-.32-1.33-1.2V14.1c0-.39.23-.59.68-.59h1.87c.55,0,.82-.25.82-.76V11.31C150,10.82,149.72,10.57,149.16,10.57Z"/><path class="cls-3" d="M13.61,1.4A13.61,13.61,0,1,0,27.22,15,13.61,13.61,0,0,0,13.61,1.4ZM16.39,15v0c0,1-.66,2.19-2.54,3.45a1.32,1.32,0,0,1-2.16-1v-5a1.32,1.32,0,0,1,2.16-1C15.73,12.82,16.38,14,16.39,15v0Zm5.2,9.11a16.86,16.86,0,0,0,2.11-4.53,11.2,11.2,0,0,1-2.55,3.69l1-2-.08,0-1.58,2.14-.1-.06c.36-.75.72-1.5,1.07-2.25l-.05,0-1,1.06-.09-.05L21,20.53,21,20.48,19.71,21.8l-.09-.05,2.19-3.6-.11-.08-1.57,2-.06,0,.72-1.68-.09-.05-1.87,2.13-.1-.06.8-2-.06,0L18,20.39l-.12-.06c.25-.55.49-1.1.73-1.64l-.07-.05-1.23,1.44-.09,0,.88-1.54-.08,0-.91,1-.07,0,.51-1.15-.14-.11-.56.83-.14-.13,1-1.55-.09-.07-.47.55a6,6,0,0,0,.19-5.3l.39.47.07,0-1-2,.1,0,1,1.55.08,0-.34-1.1.08,0L18.86,13l.07,0-.52-1.39.09-.07.85.82c-.29-.83-.54-1.51-.78-2.19l.07,0,1,1.33.07,0c-.15-.37-.29-.74-.43-1.12a11.19,11.19,0,0,1,1.92,3.52l.19-.07L20.3,10.09l1,1.62.09,0-1.15-3.2.06-.05,1.35,1.8.08,0L20.23,6.74c.85.55,1.23,1.35,2.88,5.73-.15-.53-.28-1.07-.44-1.59s-.38-1.13-.59-1.68a12.31,12.31,0,0,1-.54-1.62l2.1,3.69.1,0L22.11,7.32l.1-.06c.52.72,1,1.45,1.55,2.18l.06,0c-.4-.84-.79-1.69-1.24-2.67C26.8,11.05,26.81,19.71,21.59,24.15Z"/></svg>